{"title":"Alvin.And.The.Chipmunks.Chipwrecked.2011.R5.DVDRip.XVID.MIC.AC3-","uid":6983679,"size":1450761377,"categoryP":"video","categoryS":"movies","magnet":"?xt=urn:btih:f3f3d2b8490cca8005e5da24620ef6c307c45e68&amp;dn=Alvin.And.The.Chipmunks.Chipwrecked.2011.R5.DVDRip.XVID.MIC.AC3-&amp;tr=udp%3A%2F%2Ftracker.openbittorrent.com%3A80&amp;tr=udp%3A%2F%2Fopen.demonii.com%3A1337&amp;tr=udp%3A%2F%2Ftracker.coppersurfer.tk%3A6969&amp;tr=udp%3A%2F%2Fexodus.desync.com%3A6969","seeders":0,"leechers":1,"uploader":"moviesp2p","files":3,"time":1327450921,"description":"[IMG]http://img851.imageshack.us/img851/5750/alvin3hivecm8.png[/IMG]\n\n\n[color=blue][size=4][b]Alvin.And.The.Chipmunks.Chipwrecked.2011.R5.DVDRip.XVID.MIC.AC3-5.1.HQ.Hive-CM8[/b][/size][/color]\n\n\n[b]Thx Hive\n\nCM8 Doing it right the first time :D\n\n\nSources:\nVideo: Russian DVD-R\nJelvin.i.burunduki.3.2011.DVD-5\nAudio: Bida Release/unknown\nthx\n\nEncode:\nYes its still cam audio but cleaned and tweaked now.\nWaited for a line, didnt show up so we have to live with the mic.\nThe Mic itself was very good to work with, loud and no laughing.\nPlayed a lot with it, i am happy with the result, its still not\na line but very audible now. check sample\n\nThe Russian DVD was very nice, did the usual cleanup,\nadded sharpness, brightness, rgb and denoise\n\nTook the Audio from Bida, they already did use the voice songs from\nthe russian audiotrack to get you more music experience. \nthat saved me a lot of time, would have done the same thing.\nStill Audio needed cleaning and tweaking to get real nice. \nFixed some minor sync issues around the cutpoints to get it better lipsync.\nCleaned the russian audiotrack from russian voices and entered the\ncleaned audiotrack into the russian track.\n\nAll in all very watchable now.\ngot very nice\n\nPS: the mic didnt contain audio for the bonus scene inside the end credits rolltime\nso they are russian now. no biggy. the movie itself is all english\n\nVideo: 720x304 @bitrate 1700 2pass\nAudio: English AC3 5.1 @384\nSample: Yes, included[/b]\n\n &lt;a href=&quot;\nhttp://www.imdb.com/title/tt1615918/&quot; rel=&quot;nofollow&quot; target=&quot;_NEW&quot;&gt;\nhttp://www.imdb.com/title/tt1615918/&lt;/a&gt;\n\n\nGeneral\nComplete name                  : Alvin.And.The.Chipmunks.Chipwrecked.2011.R5.DVDRip.XVID.MIC.AC3-5.1.HQ.Hive-CM8.avi\nFormat                         : AVI\nFormat/Info                    : Audio Video Interleave\nFile size                      : 1.34 GiB\nDuration                       : 1h 23mn\nOverall bit rate               : 2 289 Kbps\nWriting application            : Nandub v1.0rc2\nWriting library                : Nandub build 1853/release\n\nVideo\nID                             : 0\nFormat                         : MPEG-4 Visual\nFormat profile                 : Advanced Simple@L5\nFormat settings, BVOP          : 2\nFormat settings, QPel          : Yes\nFormat settings, GMC           : No warppoints\nFormat settings, Matrix        : Default (H.263)\nMuxing mode                    : Packed bitstream\nCodec ID                       : XVID\nCodec ID/Hint                  : XviD\nDuration                       : 1h 23mn\nBit rate                       : 1 895 Kbps\nWidth                          : 720 pixels\nHeight                         : 384 pixels\nDisplay aspect ratio           : 1.875\nFrame rate                     : 25.000 fps\nColor space                    : YUV\nChroma subsampling             : 4:2:0\nBit depth                      : 8 bits\nScan type                      : Progressive\nCompression mode               : Lossy\nBits/(Pixel*Frame)             : 0.274\nStream size                    : 1.11 GiB (83%)\nWriting library                : XviD 1.2.1 (UTC 2008-12-04)\n\nAudio\nID                             : 1\nFormat                         : AC-3\nFormat/Info                    : Audio Coding 3\nMode extension                 : CM (complete main)\nCodec ID                       : 2000\nDuration                       : 1h 23mn\nBit rate mode                  : Constant\nBit rate                       : 384 Kbps\nChannel(s)                     : 6 channels\nChannel positions              : Front: L C R, Side: L R, LFE\nSampling rate                  : 48.0 KHz\nBit depth                      : 16 bits\nCompression mode               : Lossy\nStream size                    : 230 MiB (17%)\nAlignment                      : Split accross interleaves\nInterleave, duration           : 40 ms (1.00 video frame)\nInterleave, preload duration   : 500 ms\n\n\nPlot:\nPlaying around while aboard a cruise ship, the Chipmunks and Chipettes accidentally go\noverboard and end up marooned in a tropical paradise. They discover their new turf is\nnot as deserted as it seems.\n\n\nCast:\nJustin Long           ...    Alvin (voice)\nMatthew Gray Gubler   ...    Simon (voice)\nJesse McCartney       ...    Theodore (voice)\nJason Lee             ...    Dave\nAmy Poehler           ...    Eleanor (voice)\nAnna Faris            ...    Jeanette (voice)\nChristina Applegate   ...    Brittany (voice)\n\n\n[img]http://img696.imageshack.us/img696/2272/alaall.png[/img]\n[img]http://img684.imageshack.us/img684/6996/alaallal.png[/img]\n[img]http://img825.imageshack.us/img825/7343/alaallalal.png[/img]\n[img]http://img812.imageshack.us/img812/1337/alaallalalal.png[/img]\n[img]http://img822.imageshack.us/img822/6285/alaallalalalal.png[/img]\n[img]http://img19.imageshack.us/img19/3039/alall.png[/img]\n[img]http://img19.imageshack.us/img19/6527/alaallalaallalal.png[/img]\n[img]http://img830.imageshack.us/img830/1641/alaallalaallalalal.png[/img]\n[img]http://img838.imageshack.us/img838/5969/alaallalalaallalalal.png[/img]\n\n\n\n\nGreetz\n\nViSiON,SPK,SceneLovers,PRESTiGE,SANTi,3LT0N,YanKeeS,COPYxRIGHT,THC,T0XiC\nD2U,LKRG,Feel-Free,FLAWL3SS,WBZ,BHRG,26K,NOVA,SeToNeUp,TED,MAGNET,jtr\nUnevano,Rapeseed,SAFC,goldadvance,KaN1vE,Pinnz,Wayne\nMr Hive,and most P2P groups\nGreat Work Guys :D\n\nLOOKING FOR ANYTHING YOU WANT TO LOOK AND SOUND BETTER\n\n&lt;a class=&quot;__cf_email__&quot; href=&quot;/cdn-cgi/l/email-protection&quot; data-cfemail=&quot;6526285d250d10160d08040c094b060a08&quot;&gt;[email&amp;#160;protected]&lt;/a&gt;&lt;script cf-hash='f9e31' type=&quot;text/javascript&quot;&gt;\n/* &lt;![CDATA[ */!function(){try{var t=&quot;currentScript&quot;in document?document.currentScript:function(){for(var t=document.getElementsByTagName(&quot;script&quot;),e=t.length;e--;)if(t[e].getAttribute(&quot;cf-hash&quot;))return t[e]}();if(t&amp;&amp;t.previousSibling){var e,r,n,i,c=t.previousSibling,a=c.getAttribute(&quot;data-cfemail&quot;);if(a){for(e=&quot;&quot;,r=parseInt(a.substr(0,2),16),n=2;a.length-n;n+=2)i=parseInt(a.substr(n,2),16)^r,e+=String.fromCharCode(i);e=document.createTextNode(e),c.parentNode.replaceChild(e,c)}}}catch(u){}}();/* ]]&gt; */&lt;/script&gt;","torrent":{"xt":"urn:btih:f3f3d2b8490cca8005e5da24620ef6c307c45e68","amp;dn":"Alvin.And.The.Chipmunks.Chipwrecked.2011.R5.DVDRip.XVID.MIC.AC3-","amp;tr":["udp%3A%2F%2Ftracker.openbittorrent.com%3A80","udp%3A%2F%2Fopen.demonii.com%3A1337","udp%3A%2F%2Ftracker.coppersurfer.tk%3A6969","udp%3A%2F%2Fexodus.desync.com%3A6969"],"infoHash":"f3f3d2b8490cca8005e5da24620ef6c307c45e68","infoHashBuffer":{"type":"Buffer","data":[243,243,210,184,73,12,202,128,5,229,218,36,98,14,246,195,7,196,94,104]},"announce":[],"urlList":[]}}